<svg xmlns="http://www.w3.org/2000/svg" xmlns:xlink="http://www.w3.org/1999/xlink" xmlns:xodm="http://www.corel.com/coreldraw/odm/2003" xml:space="preserve" version="1.1" style="shape-rendering:geometricPrecision;text-rendering:geometricPrecision;image-rendering:optimizeQuality;" viewBox="0 0 846.66 1058.325" x="0px" y="0px" fill-rule="evenodd" clip-rule="evenodd"><defs><style type="text/css">
   
    .fil0 {fill:black;fill-rule:nonzero}
   
  </style></defs><g><path class="fil0" d="M635.95 667.76c0.21,0.43 0.38,0.87 0.51,1.34l21.34 56.33 20.5 -54.95c0.37,-1.4 1.1,-2.71 2.19,-3.8 3.3,-3.3 8.68,-3.3 11.98,0l64.68 64.68c4.88,4.9 11.34,7.34 17.78,7.34 6.27,0 12.55,-2.31 17.38,-6.9l0.39 -0.42c4.92,-4.9 7.36,-11.36 7.36,-17.8 0,-6.27 -2.31,-12.55 -6.9,-17.38l-65.12 -65.09c-0.8,-0.86 -1.47,-1.88 -1.91,-3.05 -1.62,-4.36 0.6,-9.22 4.96,-10.84l55.7 -20.78 -68.68 -26.02c-0.46,-0.13 -0.91,-0.31 -1.34,-0.51l-137.66 -52.16 56.84 150.01zm-13.46 12.1l-502.18 0c-25.5,0 -48.72,-10.45 -65.55,-27.27 -16.87,-16.89 -27.31,-40.1 -27.31,-65.59l0 -343.9 0 -0.22 0 -0.22 0 -60.96c0,-25.5 10.44,-48.71 27.27,-65.55 16.89,-16.87 40.1,-27.31 65.59,-27.31l515.7 0c25.5,0 48.71,10.44 65.55,27.27 16.88,16.9 27.31,40.1 27.31,65.59l0 60.96 0 0.22 0 0.22 0 313.33 84.87 32.16c4.36,1.64 6.56,6.52 4.92,10.88 -0.95,2.52 -2.98,4.32 -5.36,5.07l-63.99 23.88 55.93 55.98c7.83,8.12 11.76,18.66 11.76,29.18 0,10.74 -4.11,21.52 -12.28,29.7l-0.61 0.6c-8.12,7.83 -18.66,11.76 -29.18,11.76 -10.74,0 -21.52,-4.11 -29.7,-12.28l-55.45 -55.41 -24.03 64.39c-1.62,4.36 -6.48,6.58 -10.84,4.96 -2.37,-0.88 -4.11,-2.73 -4.94,-4.93l-27.48 -72.51zm89.44 -129.85l0 -298.66 -667.54 0 0 335.65c0,20.89 8.53,39.88 22.27,53.61 13.77,13.78 32.76,22.31 53.65,22.31l495.76 0 -59.4 -156.73c-1.64,-4.36 0.56,-9.24 4.92,-10.88 2,-0.75 4.1,-0.7 5.96,0l144.38 54.7zm-438.64 -411.24c8.6,0 16.44,3.51 22.11,9.18 5.71,5.72 9.22,13.56 9.22,22.15 0,8.66 -3.51,16.49 -9.18,22.16l-0.59 0.54c-5.62,5.35 -13.24,8.64 -21.56,8.64 -8.61,0 -16.46,-3.52 -22.13,-9.2 -5.69,-5.65 -9.2,-13.48 -9.2,-22.14 0,-8.6 3.51,-16.44 9.18,-22.11 5.72,-5.71 13.56,-9.22 22.15,-9.22zm10.19 21.14c-2.59,-2.59 -6.19,-4.2 -10.19,-4.2 -3.99,0 -7.6,1.61 -10.17,4.18 -2.61,2.61 -4.22,6.21 -4.22,10.21 0,3.97 1.62,7.58 4.22,10.18 2.57,2.61 6.18,4.22 10.17,4.22 3.81,0 7.25,-1.46 9.79,-3.82l0.38 -0.4c2.6,-2.6 4.22,-6.21 4.22,-10.18 0,-4 -1.61,-7.6 -4.2,-10.19zm-87.71 -21.14c8.64,0 16.48,3.51 22.15,9.18 5.67,5.67 9.18,13.51 9.18,22.15 0,8.64 -3.51,16.49 -9.18,22.16l-0.59 0.54c-5.62,5.35 -13.24,8.64 -21.56,8.64 -8.61,0 -16.46,-3.52 -22.13,-9.2 -5.69,-5.65 -9.2,-13.48 -9.2,-22.14 0,-8.6 3.51,-16.44 9.18,-22.11 5.72,-5.71 13.56,-9.22 22.15,-9.22zm10.17 21.16c-2.6,-2.6 -6.21,-4.22 -10.17,-4.22 -3.99,0 -7.6,1.61 -10.17,4.18 -2.61,2.61 -4.22,6.21 -4.22,10.21 0,3.97 1.62,7.58 4.22,10.18 2.57,2.61 6.18,4.22 10.17,4.22 3.81,0 7.25,-1.46 9.79,-3.82l0.38 -0.4c2.6,-2.6 4.22,-6.21 4.22,-10.18 0,-3.96 -1.62,-7.57 -4.22,-10.17zm-87.69 -21.16c8.64,0 16.48,3.51 22.15,9.18 5.67,5.67 9.18,13.51 9.18,22.15 0,8.64 -3.51,16.49 -9.18,22.16l-0.59 0.54c-5.62,5.35 -13.24,8.64 -21.56,8.64 -8.61,0 -16.46,-3.52 -22.13,-9.2 -5.69,-5.65 -9.2,-13.48 -9.2,-22.14 0,-8.6 3.51,-16.44 9.18,-22.11 5.72,-5.71 13.56,-9.22 22.15,-9.22zm10.17 21.16c-2.6,-2.6 -6.21,-4.22 -10.17,-4.22 -3.99,0 -7.6,1.61 -10.17,4.18 -2.61,2.61 -4.22,6.21 -4.22,10.21 0,3.97 1.62,7.58 4.22,10.18 2.57,2.61 6.18,4.22 10.17,4.22 3.81,0 7.25,-1.46 9.79,-3.82l0.38 -0.4c2.6,-2.6 4.22,-6.21 4.22,-10.18 0,-3.96 -1.62,-7.57 -4.22,-10.17zm289.07 147.51c6.79,8.32 12.91,18.77 18.16,30.95 3.54,8.23 6.72,17.29 9.48,27.04l57.7 0c-4.63,-6.29 -9.72,-12.22 -15.23,-17.73 -19.1,-19.08 -43.18,-33.21 -70.11,-40.26zm31.84 74.93c4.35,20.17 7.01,42.61 7.52,66.3l75.82 0c-1.29,-23.96 -8.03,-46.46 -18.99,-66.3l-64.35 0zm7.52 83.24c-0.51,23.69 -3.17,46.13 -7.52,66.3l64.35 0c10.96,-19.84 17.7,-42.35 18.99,-66.3l-75.82 0zm-11.72 83.24c-2.76,9.75 -5.94,18.81 -9.48,27.04 -5.25,12.18 -11.37,22.63 -18.16,30.95 26.93,-7.05 51.01,-21.18 70.11,-40.26 5.51,-5.51 10.6,-11.44 15.23,-17.73l-57.7 0zm-106.3 57.99c-6.79,-8.32 -12.91,-18.77 -18.16,-30.95 -3.54,-8.23 -6.72,-17.29 -9.48,-27.04l-57.7 0c4.63,6.29 9.72,12.22 15.23,17.73 19.1,19.08 43.18,33.21 70.11,40.26zm-31.84 -74.93c-4.35,-20.17 -7.01,-42.61 -7.52,-66.3l-75.82 0c1.29,23.95 8.03,46.46 18.99,66.3l64.35 0zm-7.52 -83.24c0.51,-23.69 3.17,-46.13 7.52,-66.3l-64.35 0c-10.96,19.84 -17.7,42.34 -18.99,66.3l75.82 0zm11.72 -83.24c2.76,-9.75 5.94,-18.81 9.48,-27.04 5.25,-12.18 11.37,-22.63 18.16,-30.95 -26.93,7.05 -51.01,21.18 -70.11,40.26 -5.51,5.51 -10.6,11.44 -15.23,17.73l57.7 0zm108.92 -20.36c-11.36,-26.35 -26.24,-42.67 -41.95,-42.67 -15.71,0 -30.59,16.32 -41.95,42.67 -2.7,6.28 -5.19,13.09 -7.4,20.36l98.7 0c-2.21,-7.27 -4.7,-14.08 -7.4,-20.36zm-95.79 37.3c-4.56,19.9 -7.36,42.37 -7.9,66.3l123.48 0c-0.54,-23.93 -3.34,-46.4 -7.9,-66.3l-107.68 0zm-7.9 83.24c0.54,23.93 3.34,46.4 7.9,66.3l107.68 0c4.56,-19.9 7.36,-42.37 7.9,-66.3l-123.48 0zm12.39 83.24c2.22,7.28 4.7,14.09 7.4,20.36 11.36,26.35 26.24,42.67 41.95,42.67 15.71,0 30.59,-16.32 41.95,-42.67 2.7,-6.27 5.18,-13.08 7.4,-20.36l-98.7 0zm49.35 -263.39c47.38,0 90.3,19.23 121.36,50.28 31.09,31.1 50.32,74.02 50.32,121.4 0,47.38 -19.23,90.3 -50.28,121.36 -31.1,31.09 -74.02,50.32 -121.4,50.32 -47.38,0 -90.3,-19.23 -121.36,-50.28 -31.09,-31.1 -50.32,-74.02 -50.32,-121.4 0,-47.38 19.23,-90.3 50.28,-121.36 31.1,-31.09 74.02,-50.32 121.4,-50.32zm-333.77 -51.05l667.54 0 0 -52.71c0,-20.89 -8.53,-39.88 -22.27,-53.61 -13.77,-13.78 -32.76,-22.31 -53.65,-22.31l-515.7 0c-20.89,0 -39.88,8.53 -53.61,22.27 -13.78,13.77 -22.31,32.76 -22.31,53.65l0 52.71z"/></g><text x="0" y="861.66" fill="#000000" font-size="5px" font-weight="bold" font-family="'Helvetica Neue', Helvetica, Arial-Unicode, Arial, Sans-serif">Created by Sunrise</text><text x="0" y="866.66" fill="#000000" font-size="5px" font-weight="bold" font-family="'Helvetica Neue', Helvetica, Arial-Unicode, Arial, Sans-serif">from the Noun Project</text></svg>